Coordinates
version=1
nRows=4
nColumns=63
inDegrees=yes

Units are S.I. units (second, meters, Newtons, ...)
If the header above contains a line with 'inDegrees', this indicates whether rotational values are in degrees (yes) or radians (no).

endheader
time	pelvis_tilt	pelvis_list	pelvis_rotation	pelvis_tx	pelvis_ty	pelvis_tz	hip_flexion_r	hip_adduction_r	hip_rotation_r	knee_angle_r	knee_angle_r_beta	ankle_angle_r	subtalar_angle_r	mtp_angle_r	hip_flexion_l	hip_adduction_l	hip_rotation_l	knee_angle_l	knee_angle_l_beta	ankle_angle_l	subtalar_angle_l	mtp_angle_l	L5_S1_Flex_Ext	L5_S1_Lat_Bending	L5_S1_axial_rotation	L4_L5_Flex_Ext	L4_L5_Lat_Bending	L4_L5_axial_rotation	L3_L4_Flex_Ext	L3_L4_Lat_Bending	L3_L4_axial_rotation	L2_L3_Flex_Ext	L2_L3_Lat_Bending	L2_L3_axial_rotation	L1_L2_Flex_Ext	L1_L2_Lat_Bending	L1_L2_axial_rotation	L1_T12_Flex_Ext	L1_T12_Lat_Bending	L1_T12_axial_rotation	Abs_r3	Abs_r2	Abs_r1	Abs_t1	Abs_t2	neck_flexion	neck_bending	neck_rotation	arm_flex_r	arm_add_r	arm_rot_r	elbow_flex_r	pro_sup_r	wrist_flex_r	wrist_dev_r	arm_flex_l	arm_add_l	arm_rot_l	elbow_flex_l	pro_sup_l	wrist_flex_l	wrist_dev_l
      0.00000000	     -2.04465101	     -4.27437429	     81.80439659	      0.00731730	      0.93833407	      0.58005621	      5.23962129	     -0.21382591	      3.27700609	      7.96146627	      0.13895380	     25.90711555	      4.96407608	      0.00000000	      3.58123136	      0.28916962	     -1.92340852	      4.23911233	      0.07398647	     25.93409908	     -6.14524695	      0.00000000	      0.09719037	     -0.18335629	      2.56397134	      0.18049224	     -0.24386387	      2.72421955	      0.15967406	     -0.44581249	      2.72421955	      0.11107888	     -0.44581249	      2.24347492	      0.09025098	     -0.37390016	      2.08322672	      0.05553458	     -0.28401890	      1.92297851	      0.69422111	     -2.07416307	     14.26003941	      0.00000000	      0.00000000	     25.08060248	     -2.62213113	    -14.64971064	      0.76087474	    -10.82078815	     40.34991707	     50.58292653	     54.55132234	      0.34035214	     18.91117681	     13.88097539	    -10.75582047	     63.29072435	     55.24915519	     87.11241700	      0.53005345	      8.82689668
      0.02000000	     -1.96561959	     -4.24277887	     81.75276613	      0.00752757	      0.93892628	      0.57996663	      5.27018014	     -0.18332736	      2.27063054	      7.60592462	      0.13274843	     27.29523788	      6.38132191	      0.00000000	      3.51052623	      0.18444490	     -1.96894332	      4.16340618	      0.07266515	     26.18429675	     -6.01675701	      0.00000000	      0.10030663	     -0.17404808	      2.64966835	      0.18627944	     -0.23148394	      2.81527263	      0.16479376	     -0.42318049	      2.81527263	      0.11464044	     -0.42318049	      2.31845981	      0.09314473	     -0.35491884	      2.15285554	      0.05731521	     -0.26960047	      1.98725127	      0.71648020	     -1.96886664	     14.73666049	      0.00000000	      0.00000000	     25.00509660	     -3.04852726	    -15.06920618	      1.31290503	    -11.14411899	     42.89156366	     49.37910228	     47.80988002	      0.24568359	     16.24382087	     15.66571986	    -10.75562673	     67.89016130	     54.09412991	     86.34117644	     -2.99728313	      5.92155740
      0.04000000	     -1.86755448	     -4.22567333	     81.81601163	      0.00746360	      0.93939701	      0.57986113	      5.28410432	     -0.16075984	      1.03944863	      7.42076384	      0.12951676	     28.05037859	      7.93129049	      0.00000000	      3.50212778	      0.06044909	     -2.43653802	      4.18329630	      0.07301229	     26.48816416	     -5.28313744	      0.00000000	      0.10041074	     -0.15960873	      2.66272511	      0.18647278	     -0.21227961	      2.82914543	      0.16496480	     -0.38807266	      2.82914543	      0.11475943	     -0.38807266	      2.32988448	      0.09324141	     -0.32547411	      2.16346416	      0.05737470	     -0.24723392	      1.99704384	      0.71722386	     -1.80552583	     14.80927827	      0.00000000	      0.00000000	     24.80476984	     -2.90746340	    -14.87663662	      1.87233579	    -11.46997022	     45.13403288	     48.88955414	     43.16029792	     -0.80412494	     14.58295169	     16.66099712	    -10.60643109	     70.09451237	     53.36821765	     85.78801220	     -4.14171041	      5.08975838
      0.06000000	     -1.87304485	     -4.18477336	     82.04761236	      0.00733630	      0.93973586	      0.57977218	      5.16273133	     -0.16945656	      1.01473879	      7.14937858	      0.12478020	     28.03889302	      7.57458250	      0.00000000	      3.51404622	      0.02349596	     -3.27275006	      4.25991598	      0.07434956	     26.87173533	     -3.75399091	      0.00000000	      0.08757533	     -0.16029823	      2.62981307	      0.16263614	     -0.21319665	      2.79417639	      0.14387750	     -0.38974913	      2.79417639	      0.10008984	     -0.38974913	      2.30108644	      0.08132245	     -0.32688016	      2.13672312	      0.05004054	     -0.24830196	      1.97235980	      0.62554179	     -1.81332568	     14.62623136	      0.00000000	      0.00000000	     24.69691346	     -2.39665440	    -14.61388216	      2.10978327	    -11.42139619	     45.50184748	     48.56946197	     42.81548727	     -0.88322915	     14.16847512	     17.21748436	    -10.54883430	     70.99883580	     52.99363749	     83.96745753	     -3.95210016	      5.09122806
